<mxfile host="Electron" agent="Mozilla/5.0 (X11; Linux x86_64) AppleWebKit/537.36 (KHTML, like Gecko) draw.io/26.0.16 Chrome/132.0.6834.196 Electron/34.2.0 Safari/537.36" version="26.0.16">
  <diagram name="Page-1" id="s4QWMtZIY4uDVkisv5P1">
    <mxGraphModel dx="1434" dy="870" grid="1" gridSize="10" guides="1" tooltips="1" connect="1" arrows="1" fold="1" page="1" pageScale="1" pageWidth="1169" pageHeight="827" math="0" shadow="0">
      <root>
        <mxCell id="0" />
        <mxCell id="1" parent="0" />
        <mxCell id="IZEZW5CDer8Tyxcc3vr_-11" style="edgeStyle=orthogonalEdgeStyle;rounded=0;orthogonalLoop=1;jettySize=auto;html=1;exitX=1;exitY=0.5;exitDx=0;exitDy=0;" parent="1" source="IZEZW5CDer8Tyxcc3vr_-1" target="IZEZW5CDer8Tyxcc3vr_-8" edge="1">
          <mxGeometry relative="1" as="geometry" />
        </mxCell>
        <mxCell id="IZEZW5CDer8Tyxcc3vr_-1" value="Imagenes Medicas" style="rounded=1;whiteSpace=wrap;html=1;" parent="1" vertex="1">
          <mxGeometry x="120" y="520" width="160" height="120" as="geometry" />
        </mxCell>
        <mxCell id="IZEZW5CDer8Tyxcc3vr_-3" value="CRUD" style="shape=cylinder3;whiteSpace=wrap;html=1;boundedLbl=1;backgroundOutline=1;size=15;" parent="1" vertex="1">
          <mxGeometry x="170" y="600" width="60" height="80" as="geometry" />
        </mxCell>
        <mxCell id="IZEZW5CDer8Tyxcc3vr_-4" value="API" style="rounded=0;whiteSpace=wrap;html=1;" parent="1" vertex="1">
          <mxGeometry x="165" y="500" width="70" height="40" as="geometry" />
        </mxCell>
        <mxCell id="IZEZW5CDer8Tyxcc3vr_-5" value="Dataframe Anonimizado" style="rounded=1;whiteSpace=wrap;html=1;" parent="1" vertex="1">
          <mxGeometry x="440" y="520" width="160" height="120" as="geometry" />
        </mxCell>
        <mxCell id="IZEZW5CDer8Tyxcc3vr_-6" value="CRUD" style="shape=cylinder3;whiteSpace=wrap;html=1;boundedLbl=1;backgroundOutline=1;size=15;" parent="1" vertex="1">
          <mxGeometry x="490" y="600" width="60" height="80" as="geometry" />
        </mxCell>
        <mxCell id="IZEZW5CDer8Tyxcc3vr_-7" value="API" style="rounded=0;whiteSpace=wrap;html=1;" parent="1" vertex="1">
          <mxGeometry x="485" y="500" width="70" height="40" as="geometry" />
        </mxCell>
        <mxCell id="IZEZW5CDer8Tyxcc3vr_-10" value="" style="group" parent="1" vertex="1" connectable="0">
          <mxGeometry x="320" y="565" width="80" height="60" as="geometry" />
        </mxCell>
        <mxCell id="IZEZW5CDer8Tyxcc3vr_-8" value="" style="shape=cylinder3;whiteSpace=wrap;html=1;boundedLbl=1;backgroundOutline=1;size=15;rotation=90;" parent="IZEZW5CDer8Tyxcc3vr_-10" vertex="1">
          <mxGeometry x="25" y="-25" width="30" height="80" as="geometry" />
        </mxCell>
        <mxCell id="IZEZW5CDer8Tyxcc3vr_-9" value="Topico anonimizació&lt;span style=&quot;background-color: transparent; color: light-dark(rgb(0, 0, 0), rgb(255, 255, 255));&quot;&gt;n&lt;/span&gt;" style="text;html=1;align=center;verticalAlign=middle;whiteSpace=wrap;rounded=0;" parent="IZEZW5CDer8Tyxcc3vr_-10" vertex="1">
          <mxGeometry x="10" y="30" width="60" height="30" as="geometry" />
        </mxCell>
        <mxCell id="IZEZW5CDer8Tyxcc3vr_-12" style="edgeStyle=orthogonalEdgeStyle;rounded=0;orthogonalLoop=1;jettySize=auto;html=1;exitX=0.5;exitY=0;exitDx=0;exitDy=0;exitPerimeter=0;" parent="1" source="IZEZW5CDer8Tyxcc3vr_-8" target="IZEZW5CDer8Tyxcc3vr_-5" edge="1">
          <mxGeometry relative="1" as="geometry" />
        </mxCell>
        <mxCell id="IZEZW5CDer8Tyxcc3vr_-16" style="edgeStyle=orthogonalEdgeStyle;rounded=0;orthogonalLoop=1;jettySize=auto;html=1;exitX=0;exitY=0.5;exitDx=0;exitDy=0;" parent="1" source="IZEZW5CDer8Tyxcc3vr_-13" target="IZEZW5CDer8Tyxcc3vr_-4" edge="1">
          <mxGeometry relative="1" as="geometry" />
        </mxCell>
        <mxCell id="IZEZW5CDer8Tyxcc3vr_-17" style="edgeStyle=orthogonalEdgeStyle;rounded=0;orthogonalLoop=1;jettySize=auto;html=1;exitX=1;exitY=0.5;exitDx=0;exitDy=0;entryX=0.5;entryY=0;entryDx=0;entryDy=0;" parent="1" source="IZEZW5CDer8Tyxcc3vr_-13" target="IZEZW5CDer8Tyxcc3vr_-20" edge="1">
          <mxGeometry relative="1" as="geometry" />
        </mxCell>
        <mxCell id="IZEZW5CDer8Tyxcc3vr_-21" style="edgeStyle=orthogonalEdgeStyle;rounded=0;orthogonalLoop=1;jettySize=auto;html=1;" parent="1" source="IZEZW5CDer8Tyxcc3vr_-13" target="IZEZW5CDer8Tyxcc3vr_-7" edge="1">
          <mxGeometry relative="1" as="geometry" />
        </mxCell>
        <mxCell id="IZEZW5CDer8Tyxcc3vr_-13" value="Gestión de usuarios" style="rounded=1;whiteSpace=wrap;html=1;" parent="1" vertex="1">
          <mxGeometry x="440" y="200" width="160" height="120" as="geometry" />
        </mxCell>
        <mxCell id="IZEZW5CDer8Tyxcc3vr_-14" value="CRUD" style="shape=cylinder3;whiteSpace=wrap;html=1;boundedLbl=1;backgroundOutline=1;size=15;" parent="1" vertex="1">
          <mxGeometry x="410" y="270" width="60" height="80" as="geometry" />
        </mxCell>
        <mxCell id="IZEZW5CDer8Tyxcc3vr_-15" value="API" style="rounded=0;whiteSpace=wrap;html=1;" parent="1" vertex="1">
          <mxGeometry x="485" y="180" width="70" height="40" as="geometry" />
        </mxCell>
        <mxCell id="IZEZW5CDer8Tyxcc3vr_-18" value="Monetización Dataframes" style="rounded=1;whiteSpace=wrap;html=1;" parent="1" vertex="1">
          <mxGeometry x="760" y="520" width="160" height="120" as="geometry" />
        </mxCell>
        <mxCell id="IZEZW5CDer8Tyxcc3vr_-19" value="CRUD" style="shape=cylinder3;whiteSpace=wrap;html=1;boundedLbl=1;backgroundOutline=1;size=15;" parent="1" vertex="1">
          <mxGeometry x="810" y="600" width="60" height="80" as="geometry" />
        </mxCell>
        <mxCell id="IZEZW5CDer8Tyxcc3vr_-20" value="API" style="rounded=0;whiteSpace=wrap;html=1;" parent="1" vertex="1">
          <mxGeometry x="805" y="500" width="70" height="40" as="geometry" />
        </mxCell>
        <mxCell id="IZEZW5CDer8Tyxcc3vr_-22" value="" style="group" parent="1" vertex="1" connectable="0">
          <mxGeometry x="630" y="565" width="80" height="60" as="geometry" />
        </mxCell>
        <mxCell id="IZEZW5CDer8Tyxcc3vr_-23" value="" style="shape=cylinder3;whiteSpace=wrap;html=1;boundedLbl=1;backgroundOutline=1;size=15;rotation=90;" parent="IZEZW5CDer8Tyxcc3vr_-22" vertex="1">
          <mxGeometry x="25" y="-25" width="30" height="80" as="geometry" />
        </mxCell>
        <mxCell id="IZEZW5CDer8Tyxcc3vr_-24" value="Topico acceso a data" style="text;html=1;align=center;verticalAlign=middle;whiteSpace=wrap;rounded=0;" parent="IZEZW5CDer8Tyxcc3vr_-22" vertex="1">
          <mxGeometry x="10" y="30" width="60" height="30" as="geometry" />
        </mxCell>
        <mxCell id="IZEZW5CDer8Tyxcc3vr_-25" style="edgeStyle=orthogonalEdgeStyle;rounded=0;orthogonalLoop=1;jettySize=auto;html=1;exitX=1;exitY=0.5;exitDx=0;exitDy=0;entryX=0.5;entryY=1;entryDx=0;entryDy=0;entryPerimeter=0;" parent="1" source="IZEZW5CDer8Tyxcc3vr_-5" target="IZEZW5CDer8Tyxcc3vr_-23" edge="1">
          <mxGeometry relative="1" as="geometry" />
        </mxCell>
        <mxCell id="IZEZW5CDer8Tyxcc3vr_-27" style="edgeStyle=orthogonalEdgeStyle;rounded=0;orthogonalLoop=1;jettySize=auto;html=1;exitX=0.5;exitY=0;exitDx=0;exitDy=0;exitPerimeter=0;entryX=0;entryY=0.5;entryDx=0;entryDy=0;" parent="1" source="IZEZW5CDer8Tyxcc3vr_-23" target="IZEZW5CDer8Tyxcc3vr_-18" edge="1">
          <mxGeometry relative="1" as="geometry">
            <mxPoint x="730" y="575" as="sourcePoint" />
          </mxGeometry>
        </mxCell>
      </root>
    </mxGraphModel>
  </diagram>
</mxfile>
